<svg width="230" height="230" viewBox="0 0 230 230" fill="none" xmlns="http://www.w3.org/2000/svg">
<path d="M115 196.678C164.258 196.678 204.189 194.346 204.189 191.47C204.189 188.595 164.258 186.263 115 186.263C65.742 186.263 25.8105 188.595 25.8105 191.47C25.8105 194.346 65.742 196.678 115 196.678Z" fill="#F5F5F5"/>
<path d="M114.982 166.083H49.6616L46.0874 61.0327H111.407L114.982 166.083Z" fill="#0992BF"/>
<path d="M118.243 162.822H52.923L49.3442 57.7714H114.664L118.243 162.822Z" fill="#0992BF"/>
<path opacity="0.3" d="M118.243 162.822H52.923L49.3442 57.7714H114.664L118.243 162.822Z" fill="white"/>
<path d="M96.3576 100.999C103.352 93.8848 103.054 82.2513 95.693 75.0151C88.3321 67.779 76.6951 67.6804 69.7012 74.795C62.7073 81.9096 63.0048 93.5432 70.3658 100.779C77.7268 108.015 89.3637 108.114 96.3576 100.999Z" fill="#0992BF"/>
<path d="M98.1963 87.9013C98.2904 90.4045 97.7441 92.8902 96.6093 95.1233C95.3844 97.5299 93.5133 99.5475 91.2057 100.95C88.8981 102.352 86.2455 103.084 83.5453 103.063C80.7816 103.048 78.0705 102.307 75.6838 100.913C73.2972 99.5195 71.319 97.5228 69.9477 95.1233C68.669 92.9246 67.9547 90.4434 67.8684 87.9013C67.7836 85.9303 68.1004 83.9625 68.7995 82.1177C69.4986 80.2728 70.5656 78.5893 71.9354 77.1696C73.3053 75.7498 74.9495 74.6233 76.7682 73.8587C78.5869 73.094 80.542 72.707 82.5149 72.7213C86.5791 72.7501 90.476 74.3434 93.3962 77.1702C96.3165 79.9971 98.0355 83.8402 98.1963 87.9013Z" fill="white"/>
<path opacity="0.6" d="M96.6001 95.1234C95.3752 97.5299 93.5041 99.5476 91.1965 100.95C88.889 102.352 86.2363 103.084 83.5361 103.063C80.7724 103.048 78.0613 102.307 75.6746 100.913C73.288 99.5196 71.3098 97.5229 69.9385 95.1234C73.8288 92.4711 78.4321 91.0612 83.1405 91.08C87.9247 91.0904 92.6022 92.4955 96.6001 95.1234Z" fill="#0992BF"/>
<path opacity="0.6" d="M87.7552 87.5231C90.327 84.907 90.2176 80.6292 87.5109 77.9684C84.8042 75.3076 80.5252 75.2714 77.9534 77.8875C75.3817 80.5036 75.4911 84.7814 78.1978 87.4422C80.9045 90.103 85.1835 90.1392 87.7552 87.5231Z" fill="#0992BF"/>
<path d="M105.119 124.78H63.4525L63.1719 116.5H104.839L105.119 124.78Z" fill="white"/>
<path d="M105.625 139.578H63.9539L63.6733 131.298H105.345L105.625 139.578Z" fill="white"/>
<path d="M89.5437 132.439L79.5019 133.819C79.4061 133.829 79.3135 133.86 79.2301 133.908C79.1467 133.957 79.0742 134.022 79.0172 134.1C78.9602 134.178 78.9198 134.266 78.8988 134.36C78.8777 134.454 78.8763 134.552 78.8947 134.647L80.2149 141.376C80.2581 141.574 80.3736 141.748 80.5387 141.865C80.7039 141.981 80.9067 142.032 81.1073 142.007L91.1491 140.627C91.2447 140.614 91.3368 140.583 91.4196 140.534C91.5025 140.485 91.5745 140.419 91.6309 140.341C91.6874 140.263 91.7273 140.174 91.7481 140.08C91.7688 139.986 91.7701 139.888 91.7517 139.794L90.4361 133.064C90.3928 132.867 90.2771 132.693 90.1118 132.577C89.9465 132.461 89.7438 132.412 89.5437 132.439ZM86.6595 139.256L84.8195 139.5L84.6401 137.328C84.4505 137.246 84.2834 137.12 84.1529 136.96C84.0224 136.8 83.9323 136.611 83.8903 136.408C83.8565 136.252 83.8559 136.09 83.8887 135.933C83.9214 135.776 83.9867 135.628 84.0804 135.498C84.174 135.367 84.2939 135.258 84.4323 135.178C84.5707 135.097 84.7246 135.046 84.8839 135.028C85.2106 134.986 85.5412 135.068 85.8103 135.258C86.0795 135.448 86.2676 135.732 86.3375 136.054C86.3773 136.249 86.3651 136.45 86.3021 136.638C86.2391 136.826 86.1275 136.995 85.9787 137.126L86.6595 139.256Z" fill="#0992BF"/>
<path d="M88.5502 132.075C88.3727 132.098 88.1931 132.053 88.0467 131.95C87.9003 131.847 87.7977 131.693 87.759 131.519L87.6302 130.861C87.4464 129.963 86.9432 129.163 86.214 128.608C85.4849 128.053 84.5792 127.781 83.665 127.843C83.2037 127.869 82.7534 127.995 82.3448 128.21C81.9362 128.426 81.5788 128.727 81.2969 129.093C81.015 129.46 80.8152 129.882 80.711 130.332C80.6069 130.783 80.6009 131.25 80.6934 131.703L80.8406 132.462C80.8578 132.546 80.8571 132.632 80.8388 132.716C80.8205 132.8 80.7849 132.879 80.7342 132.949C80.6835 133.018 80.6189 133.076 80.5446 133.119C80.4702 133.162 80.3878 133.188 80.3024 133.198C80.1245 133.222 79.9439 133.179 79.797 133.075C79.6501 132.972 79.548 132.817 79.5112 132.641L79.387 132.002C79.2607 131.404 79.2565 130.787 79.3747 130.188C79.4929 129.589 79.731 129.019 80.0747 128.515C80.4185 128.01 80.8607 127.579 81.375 127.25C81.8892 126.92 82.4647 126.698 83.067 126.597C84.3729 126.377 85.7131 126.669 86.8095 127.412C87.9058 128.154 88.6742 129.291 88.955 130.585L89.1022 131.339C89.1194 131.424 89.1183 131.512 89.0992 131.597C89.08 131.682 89.0432 131.761 88.9911 131.831C88.939 131.9 88.8727 131.958 88.7968 132C88.7208 132.042 88.6368 132.068 88.5502 132.075Z" fill="#0992BF"/>
<path d="M98.748 151.174H71.6218L71.4424 145.783H98.564L98.748 151.174Z" fill="#0992BF"/>
<path d="M85.6611 120.64C85.6692 120.836 85.6372 121.032 85.5672 121.216C85.4972 121.4 85.3906 121.568 85.2539 121.71C85.1171 121.851 84.953 121.963 84.7715 122.04C84.5901 122.116 84.395 122.154 84.1982 122.153C83.7926 122.15 83.4037 121.991 83.1118 121.709C82.8199 121.428 82.6473 121.045 82.6297 120.64C82.6215 120.443 82.6535 120.247 82.7235 120.063C82.7934 119.879 82.9001 119.711 83.0368 119.569C83.1736 119.428 83.3377 119.316 83.5192 119.239C83.7006 119.163 83.8956 119.125 84.0924 119.126C84.4984 119.128 84.8879 119.287 85.1801 119.568C85.4722 119.85 85.6445 120.234 85.6611 120.64Z" fill="#263238"/>
<path d="M79.1198 120.64C79.1286 120.836 79.0971 121.033 79.0274 121.217C78.9576 121.401 78.851 121.569 78.7141 121.711C78.5772 121.853 78.4129 121.965 78.2311 122.041C78.0494 122.117 77.854 122.155 77.657 122.153C77.2519 122.15 76.8635 121.991 76.5723 121.709C76.2812 121.427 76.1096 121.044 76.093 120.64C76.0849 120.443 76.1168 120.247 76.1868 120.063C76.2568 119.879 76.3634 119.711 76.5002 119.569C76.637 119.428 76.8011 119.316 76.9825 119.239C77.164 119.163 77.359 119.125 77.5558 119.126C77.9613 119.128 78.3503 119.287 78.6418 119.569C78.9332 119.851 79.1044 120.234 79.1198 120.64Z" fill="#263238"/>
<path d="M72.6203 120.64C72.6284 120.836 72.5965 121.032 72.5265 121.216C72.4565 121.4 72.3499 121.568 72.2131 121.71C72.0764 121.851 71.9123 121.963 71.7308 122.04C71.5494 122.116 71.3543 122.154 71.1575 122.153C70.752 122.151 70.363 121.992 70.0716 121.71C69.7802 121.428 69.6089 121.045 69.5935 120.64C69.5854 120.443 69.6173 120.247 69.6873 120.063C69.7573 119.879 69.8639 119.711 70.0007 119.569C70.1375 119.428 70.3016 119.316 70.483 119.239C70.6645 119.163 70.8595 119.125 71.0563 119.126C71.4618 119.128 71.8508 119.287 72.1422 119.569C72.4336 119.851 72.6049 120.234 72.6203 120.64Z" fill="#263238"/>
<path d="M92.1795 120.64C92.1876 120.836 92.1557 121.032 92.0857 121.216C92.0157 121.4 91.9091 121.568 91.7723 121.71C91.6356 121.851 91.4715 121.963 91.29 122.04C91.1086 122.116 90.9135 122.154 90.7167 122.153C90.3113 122.151 89.9222 121.992 89.6308 121.71C89.3394 121.428 89.1682 121.045 89.1527 120.64C89.1459 120.444 89.1789 120.248 89.2498 120.065C89.3207 119.882 89.428 119.716 89.5652 119.575C89.7024 119.435 89.8667 119.324 90.048 119.25C90.2293 119.175 90.424 119.137 90.6201 119.14C91.0225 119.143 91.4085 119.3 91.6985 119.579C91.9886 119.858 92.1607 120.238 92.1795 120.64Z" fill="#263238"/>
<path d="M98.6975 120.64C98.7062 120.836 98.6748 121.033 98.605 121.217C98.5353 121.401 98.4287 121.569 98.2918 121.711C98.1549 121.853 97.9905 121.965 97.8088 122.041C97.627 122.117 97.4317 122.155 97.2347 122.153C96.8295 122.15 96.4411 121.991 96.15 121.709C95.8588 121.427 95.6872 121.044 95.6707 120.64C95.6626 120.443 95.6945 120.247 95.7645 120.063C95.8345 119.879 95.9411 119.711 96.0779 119.569C96.2146 119.428 96.3787 119.316 96.5602 119.239C96.7416 119.163 96.9367 119.125 97.1335 119.126C97.539 119.128 97.928 119.287 98.2194 119.569C98.5108 119.851 98.6821 120.234 98.6975 120.64Z" fill="#263238"/>
<path d="M153.599 80.1688C154.211 81.1532 154.721 82.0916 155.246 83.0714C155.77 84.0512 156.244 85.0356 156.708 86.043C157.656 88.0829 158.441 90.1948 159.054 92.3588C159.137 92.6302 159.197 92.92 159.266 93.2006L159.367 93.6284L159.418 93.84L159.478 94.1896C159.581 94.9827 159.533 95.7883 159.335 96.5632C159.017 97.7665 158.534 98.9198 157.9 99.9902C156.765 101.935 155.392 103.732 153.815 105.34L151.878 103.877C152.85 102.09 153.715 100.247 154.468 98.3572C154.804 97.5246 155.04 96.6553 155.172 95.7674C155.214 95.4963 155.202 95.2194 155.135 94.9532L154.951 94.392C154.878 94.162 154.809 93.932 154.721 93.6974C154.021 91.7997 153.212 89.9443 152.297 88.1406C151.377 86.3006 150.388 84.4606 149.399 82.7034L153.599 80.1688Z" fill="#FF8B7B"/>
<path d="M152.37 103.238L150.254 104.356L152.683 107.198C152.683 107.198 154.201 106.173 154.27 104.609L152.37 103.238Z" fill="#FF8B7B"/>
<path d="M147.416 106.108L150.015 108.174L152.683 107.198L150.254 104.356L147.416 106.108Z" fill="#FF8B7B"/>
<path d="M138.529 65.1176C138.478 65.3752 138.299 65.5546 138.133 65.5224C137.968 65.4902 137.871 65.251 137.922 64.998C137.972 64.745 138.152 64.538 138.322 64.5932C138.492 64.6484 138.579 64.86 138.529 65.1176Z" fill="#263238"/>
<path d="M138.322 65.5592C137.859 66.2797 137.298 66.9329 136.657 67.5004C136.808 67.6574 136.992 67.7799 137.195 67.8593C137.398 67.9387 137.617 67.9732 137.834 67.9604L138.322 65.5592Z" fill="#FF5652"/>
<path d="M137.494 74.5844V71.5668L141.487 72.0268C141.487 72.0268 141.423 74.6212 139.187 75.3848L137.494 74.5844Z" fill="#FF8B7B"/>
<path d="M138.644 69.3955L141.454 70.2051L141.505 72.0497L137.512 71.5667L138.644 69.3955Z" fill="#FF8B7B"/>
<path opacity="0.2" d="M141.455 70.2051L138.644 69.3955L138.097 70.4443C138.127 71.2707 138.385 72.0727 138.843 72.7613C139.301 73.4498 139.94 73.998 140.691 74.3451C141.174 73.6706 141.456 72.8732 141.505 72.0451L141.455 70.2051Z" fill="black"/>
<path d="M139.752 63.8894C139.782 63.8886 139.81 63.8795 139.835 63.8631C139.859 63.8467 139.879 63.8237 139.891 63.7968C139.903 63.7699 139.907 63.7401 139.903 63.7109C139.899 63.6817 139.886 63.6543 139.867 63.6318C139.706 63.4493 139.503 63.3082 139.276 63.2202C139.048 63.1321 138.803 63.0998 138.561 63.1258C138.521 63.1325 138.486 63.1547 138.463 63.1875C138.439 63.2203 138.43 63.261 138.437 63.3006C138.443 63.3405 138.465 63.3763 138.498 63.4003C138.531 63.4243 138.571 63.4347 138.611 63.4294C138.803 63.4106 138.997 63.4379 139.176 63.5091C139.356 63.5803 139.515 63.6934 139.642 63.8388C139.656 63.8542 139.673 63.8666 139.692 63.8753C139.711 63.8839 139.731 63.8887 139.752 63.8894Z" fill="#263238"/>
<path d="M145.631 69.7727C145.171 72.1417 144.886 75.4215 146.551 76.9993C146.551 76.9993 145.907 79.4005 141.491 79.4005C136.657 79.4005 139.168 77.2937 139.168 77.2937C141.178 76.6681 141.16 74.3819 140.7 72.5419L145.631 69.7727Z" fill="#FF8B7B"/>
<path d="M147.448 78.5817C147.881 77.9745 147.862 76.0471 147.402 75.7067C146.662 75.1593 143.483 75.0305 139.21 76.0149C139.67 77.8825 138.681 78.8577 138.681 78.8577L147.448 78.5817Z" fill="#0992BF"/>
<path d="M161.828 187.79C161.697 187.837 161.557 187.856 161.418 187.848C161.279 187.841 161.143 187.805 161.018 187.744C160.971 187.7 160.938 187.642 160.925 187.579C160.912 187.516 160.919 187.45 160.945 187.39C160.959 187.34 160.984 187.294 161.018 187.256C161.053 187.217 161.095 187.186 161.142 187.165C161.579 186.953 162.582 187.363 162.628 187.381C162.642 187.387 162.654 187.396 162.662 187.408C162.67 187.421 162.674 187.435 162.674 187.45C162.674 187.465 162.67 187.479 162.663 187.492C162.656 187.505 162.645 187.516 162.633 187.524C162.373 187.638 162.104 187.727 161.828 187.79ZM161.299 187.271C161.268 187.278 161.239 187.289 161.211 187.303C161.183 187.313 161.157 187.33 161.136 187.353C161.115 187.375 161.1 187.402 161.092 187.432C161.05 187.57 161.092 187.616 161.119 187.629C161.294 187.777 161.938 187.629 162.394 187.459C162.047 187.316 161.673 187.251 161.299 187.271Z" fill="#0992BF"/>
<path d="M162.614 187.528H162.578C162.21 187.422 161.428 186.866 161.418 186.502C161.418 186.445 161.438 186.388 161.474 186.343C161.51 186.298 161.56 186.267 161.616 186.254C161.671 186.234 161.729 186.225 161.787 186.23C161.845 186.235 161.902 186.253 161.952 186.282C162.384 186.502 162.66 187.395 162.67 187.436C162.676 187.447 162.68 187.46 162.68 187.473C162.68 187.486 162.676 187.499 162.67 187.51C162.663 187.517 162.654 187.522 162.644 187.526C162.635 187.529 162.624 187.53 162.614 187.528ZM161.694 186.383H161.658C161.566 186.415 161.566 186.461 161.566 186.484C161.566 186.7 162.09 187.137 162.486 187.312C162.389 187.054 162.177 186.544 161.897 186.392C161.835 186.364 161.764 186.36 161.699 186.383H161.694Z" fill="#0992BF"/>
<path d="M137.935 188.333C137.521 188.333 137.121 188.273 136.988 188.089C136.953 188.04 136.934 187.982 136.934 187.921C136.934 187.861 136.953 187.803 136.988 187.753C137.014 187.709 137.049 187.669 137.091 187.639C137.133 187.608 137.181 187.586 137.231 187.574C137.77 187.427 138.901 188.071 138.947 188.099C138.961 188.105 138.973 188.117 138.979 188.131C138.986 188.145 138.988 188.161 138.984 188.177C138.982 188.192 138.976 188.207 138.965 188.219C138.954 188.23 138.94 188.238 138.924 188.241C138.598 188.301 138.267 188.332 137.935 188.333ZM137.425 187.703C137.376 187.695 137.326 187.695 137.277 187.703C137.246 187.709 137.217 187.722 137.191 187.74C137.165 187.758 137.142 187.782 137.126 187.809C137.07 187.905 137.093 187.951 137.126 187.979C137.277 188.191 138.092 188.195 138.694 188.108C138.301 187.893 137.87 187.755 137.425 187.703Z" fill="#0992BF"/>
<path d="M138.92 188.241H138.888C138.497 188.066 137.724 187.367 137.784 186.999C137.784 186.912 137.857 186.806 138.069 186.788C138.144 186.779 138.221 186.786 138.294 186.808C138.367 186.83 138.434 186.867 138.492 186.916C138.787 187.269 138.964 187.705 138.998 188.163C138.998 188.176 138.995 188.189 138.989 188.201C138.984 188.213 138.976 188.223 138.966 188.232C138.952 188.239 138.936 188.242 138.92 188.241ZM138.129 186.93H138.083C137.945 186.93 137.935 186.995 137.935 187.013C137.899 187.234 138.423 187.786 138.823 188.025C138.788 187.656 138.638 187.307 138.395 187.027C138.32 186.962 138.223 186.928 138.124 186.93H138.129Z" fill="#0992BF"/>
<path d="M142.471 188.168H139.238L138.916 180.674H142.149L142.471 188.168Z" fill="#FF8B7B"/>
<path d="M166.221 186.668L163.061 187.353L159.882 180.375L163.047 179.69L166.221 186.668Z" fill="#FF8B7B"/>
<path d="M162.752 187.036L166.308 186.268C166.37 186.255 166.435 186.263 166.492 186.291C166.549 186.32 166.594 186.366 166.621 186.424L167.854 189.101C167.887 189.166 167.904 189.238 167.903 189.31C167.903 189.383 167.886 189.455 167.853 189.519C167.819 189.584 167.771 189.64 167.712 189.682C167.653 189.725 167.585 189.753 167.513 189.764C166.271 190.008 165.65 190.067 164.091 190.403C163.13 190.615 160.958 191.144 159.629 191.429C158.3 191.714 157.844 190.44 158.364 190.205C160.687 189.143 161.653 188.209 162.283 187.34C162.397 187.184 162.564 187.076 162.752 187.036Z" fill="#263238"/>
<path d="M139.26 187.79H142.793C142.857 187.791 142.919 187.813 142.969 187.853C143.019 187.893 143.055 187.949 143.069 188.011L143.708 190.886C143.727 190.956 143.729 191.029 143.715 191.099C143.7 191.17 143.669 191.236 143.625 191.292C143.58 191.348 143.523 191.394 143.457 191.424C143.392 191.454 143.32 191.468 143.248 191.466C141.974 191.443 140.134 191.369 138.533 191.369C136.657 191.369 135.042 191.47 132.843 191.47C131.514 191.47 131.146 190.127 131.702 190.003C134.232 189.451 136.302 189.391 138.487 188.043C138.717 187.89 138.984 187.802 139.26 187.79Z" fill="#263238"/>
<path d="M152.338 77.74C155.37 78.4346 157.858 86.1764 157.858 86.1764L151.8 90.8086C150.228 89.1273 149.118 87.0669 148.58 84.8286C147.508 80.7714 149.238 77.0224 152.338 77.74Z" fill="#0992BF"/>
<path opacity="0.4" d="M152.338 77.74C155.37 78.4346 157.858 86.1764 157.858 86.1764L151.8 90.8086C150.228 89.1273 149.118 87.0669 148.58 84.8286C147.508 80.7714 149.238 77.0224 152.338 77.74Z" fill="black"/>
<path d="M136.39 86.9722C135.636 87.7864 134.881 88.5132 134.09 89.2722C133.699 89.6402 133.303 90.0082 132.899 90.3624L132.287 90.9006L132.135 91.034L131.873 91.2456C131.603 91.4612 131.304 91.6377 130.985 91.77C130.63 91.9207 130.248 91.9989 129.863 92C129.533 92.0014 129.206 91.9438 128.896 91.8298C128.554 91.6992 128.241 91.5004 127.976 91.2456C127.64 90.9162 127.392 90.5061 127.259 90.0542C127.189 89.8314 127.144 89.6015 127.125 89.3688C127.101 89.0964 127.101 88.8224 127.125 88.55C127.148 88.3292 127.176 88.136 127.213 87.9566C127.339 87.3294 127.517 86.7139 127.746 86.1166C127.953 85.5489 128.191 84.993 128.46 84.4514C128.754 83.8672 129.034 83.4394 129.315 82.9518C130.455 81.0848 131.755 79.3208 133.202 77.6802C134.634 76.0492 136.212 74.5526 137.917 73.209L139.61 74.9524C138.423 76.544 137.255 78.2506 136.174 79.9296C135.098 81.5991 134.115 83.3267 133.23 85.1046C133.032 85.537 132.77 86.0246 132.645 86.3742C132.481 86.7803 132.338 87.1949 132.218 87.6162C132.102 87.9956 132.014 88.3831 131.955 88.7754C131.952 88.8367 131.952 88.8981 131.955 88.9594C131.955 88.9962 131.955 89.0146 131.955 88.918C131.948 88.8148 131.928 88.7128 131.896 88.6144C131.796 88.2883 131.614 87.9935 131.367 87.7588C131.147 87.5567 130.889 87.4003 130.608 87.2988C130.361 87.2052 130.099 87.1569 129.835 87.1562C129.581 87.1531 129.329 87.2016 129.094 87.2988C129.015 87.3312 128.938 87.3697 128.864 87.4138L129.039 87.2528L129.596 86.7468L130.695 85.7164C131.422 85.031 132.153 84.2996 132.843 83.6188L136.39 86.9722Z" fill="#FF8B7B"/>
<path opacity="0.2" d="M149.739 83.4255C151.386 85.0539 151.924 88.0255 152.039 90.6015L151.772 90.8085C150.2 89.1273 149.09 87.0668 148.552 84.8285C148.493 84.5893 148.437 84.3685 148.396 84.1063L149.739 83.4255Z" fill="black"/>
<path d="M133.175 80.96C132.512 84.456 132.098 91.6366 134.017 105.851H151.34C151.46 103.196 149.79 90.2336 152.352 77.717C150.438 77.3494 148.502 77.1051 146.556 76.9856C144.105 76.845 141.647 76.845 139.196 76.9856C138.387 77.0592 137.586 77.1788 136.896 77.303C135.978 77.4639 135.131 77.8998 134.467 78.5528C133.802 79.2058 133.352 80.0452 133.175 80.96Z" fill="#0992BF"/>
<path opacity="0.4" d="M133.175 80.96C132.512 84.456 132.098 91.6366 134.017 105.851H151.34C151.46 103.196 149.79 90.2336 152.352 77.717C150.438 77.3494 148.502 77.1051 146.556 76.9856C144.105 76.845 141.647 76.845 139.196 76.9856C138.387 77.0592 137.586 77.1788 136.896 77.303C135.978 77.4639 135.131 77.8998 134.467 78.5528C133.802 79.2058 133.352 80.0452 133.175 80.96Z" fill="black"/>
<path opacity="0.2" d="M135.824 86.1442L132.696 85.3944C132.6 87.2896 132.59 89.6356 132.728 92.5382C134.168 90.9006 136.008 88.343 135.824 86.1442Z" fill="black"/>
<path opacity="0.2" d="M138.916 180.674L139.081 184.538H142.32L142.154 180.674H138.916Z" fill="black"/>
<path opacity="0.2" d="M163.047 179.69L159.882 180.375L161.52 183.972L164.685 183.287L163.047 179.69Z" fill="black"/>
<path d="M147.168 66.3136C146.34 69.414 146.008 71.2724 144.095 72.5604C141.22 74.52 137.632 72.2752 137.54 69C137.439 66.0422 138.814 61.4651 142.14 60.8395C142.871 60.7024 143.624 60.7536 144.33 60.9883C145.036 61.2231 145.67 61.6336 146.173 62.1813C146.676 62.7289 147.031 63.3957 147.205 64.1186C147.379 64.8416 147.366 65.597 147.168 66.3136Z" fill="#FF8B7B"/>
<path d="M139.909 66.4286C139.752 66.0146 139.039 62.8084 139.711 61.9758C140.383 61.1432 148.042 61.7458 149.173 62.859C151.055 64.699 149.748 66.355 147.692 68.4848C146.146 70.0856 146.087 71.8888 145.305 72.1648C143.925 72.6248 141.818 72.1924 141.395 70.7342C140.971 69.276 139.909 66.4286 139.909 66.4286Z" fill="#263238"/>
<path d="M148.244 59.2112C145.539 58.0612 140.465 59.3354 137.724 58.673C137.689 59.6924 138.024 60.69 138.667 61.4815C139.311 62.2729 140.219 62.8047 141.224 62.9786C143.499 63.412 145.809 63.6261 148.124 63.618C151.133 63.48 150.544 60.191 148.244 59.2112Z" fill="#263238"/>
<path d="M148.667 62.9556C149.656 63.0528 150.651 62.8627 151.533 62.4082C152.039 63.6318 149.256 63.9676 148.667 62.9556Z" fill="#263238"/>
<path d="M141.381 66.5573C141.319 67.3551 140.996 68.1101 140.461 68.7055C139.753 69.4829 139.017 68.9953 138.892 68.0523C138.782 67.1967 139.012 65.7523 139.877 65.3383C140.742 64.9243 141.441 65.596 141.381 66.5573Z" fill="#FF8B7B"/>
<path d="M140.157 105.864C140.157 105.864 143.837 130.589 145.847 139.854C148.051 149.997 159.891 183.554 159.891 183.554L165.683 182.298C165.683 182.298 157.403 154.946 155.563 140.765C154.137 129.872 151.335 105.855 151.335 105.855L140.157 105.864Z" fill="#0992BF"/>
<path d="M158.502 181.626C158.479 181.626 159.583 183.724 159.583 183.724L166.097 182.312L165.55 180.352L158.502 181.626Z" fill="#263238"/>
<path opacity="0.3" d="M142.48 114.673C146.726 115.506 146.275 131.339 145.765 139.486C144.541 133.727 142.747 122.65 141.523 114.788C141.82 114.642 142.158 114.601 142.48 114.673Z" fill="black"/>
<path d="M134.016 105.864C134.016 105.864 133.556 130.056 133.924 139.904C134.292 150.167 137.876 183.77 137.876 183.77H143.359C143.359 183.77 143.557 150.765 143.819 140.686C144.086 129.702 145.411 105.846 145.411 105.846L134.016 105.864Z" fill="#0992BF"/>
<path d="M136.822 181.608C136.795 181.608 137.131 183.88 137.131 183.88H143.796L143.98 181.852L136.822 181.608Z" fill="#263238"/>
<path d="M139.955 82.0364C141.505 86.2178 132.393 91.1444 132.393 91.1444L128.446 86.0844C128.446 86.0844 131.1 80.8312 134.32 78.4668C138.299 75.5504 138.773 78.8532 139.955 82.0364Z" fill="#0992BF"/>
<path opacity="0.4" d="M139.955 82.0364C141.505 86.2178 132.393 91.1444 132.393 91.1444L128.446 86.0844C128.446 86.0844 131.1 80.8312 134.32 78.4668C138.299 75.5504 138.773 78.8532 139.955 82.0364Z" fill="black"/>
<path d="M175.66 50.2918C184.829 50.2918 192.261 45.555 192.261 39.7118C192.261 33.8687 184.829 29.1318 175.66 29.1318C166.491 29.1318 159.059 33.8687 159.059 39.7118C159.059 45.555 166.491 50.2918 175.66 50.2918Z" fill="#0992BF"/>
<path d="M169.671 45.0387C168.577 45.0352 167.52 44.6463 166.684 43.9405C165.849 43.2347 165.289 42.257 165.103 41.1793C164.92 40.0119 165.183 38.8185 165.841 37.8365C166.498 36.8545 167.501 36.156 168.65 35.8801C169.593 35.6628 170.58 35.7466 171.473 36.1195C172.365 36.4925 173.119 37.1359 173.627 37.9593L184.285 35.7605C184.695 35.6708 185.123 35.7389 185.485 35.9512C185.846 36.1636 186.114 36.5045 186.235 36.9059C186.291 37.1169 186.303 37.3371 186.271 37.553C186.239 37.7689 186.163 37.976 186.048 38.1615C185.933 38.3471 185.782 38.5073 185.603 38.6323C185.424 38.7573 185.221 38.8444 185.007 38.8885L184.731 38.9437C184.69 38.951 184.652 38.9677 184.618 38.9925C184.585 39.0172 184.557 39.0493 184.538 39.0863C184.521 39.1239 184.512 39.1646 184.512 39.2059C184.512 39.2471 184.521 39.2879 184.538 39.3255L184.727 39.8131C184.79 39.9711 184.796 40.1463 184.744 40.3083C184.692 40.4704 184.585 40.6092 184.441 40.7009C184.328 40.7708 184.233 40.8655 184.162 40.9779C184.091 41.0903 184.047 41.2174 184.032 41.3495C184.019 41.5011 183.957 41.6446 183.857 41.7594C183.758 41.8743 183.624 41.9546 183.475 41.9889L183.259 42.0349C183.109 42.0626 182.955 42.0418 182.817 41.9757C182.68 41.9095 182.567 41.8014 182.496 41.6669C182.4 41.5064 182.257 41.3798 182.086 41.3046C181.915 41.2294 181.725 41.2094 181.542 41.2474C181.36 41.2853 181.193 41.3794 181.066 41.5164C180.94 41.6535 180.859 41.8267 180.835 42.0119C180.822 42.1626 180.762 42.3053 180.663 42.4194C180.563 42.5335 180.431 42.6131 180.283 42.6467L180.067 42.6927C179.917 42.7197 179.763 42.6986 179.625 42.6325C179.488 42.5664 179.376 42.4587 179.303 42.3247C179.234 42.2106 179.142 42.1128 179.031 42.0382C178.921 41.9635 178.795 41.9137 178.664 41.8923C178.487 41.871 178.324 41.7859 178.205 41.6529C178.087 41.5199 178.021 41.3482 178.02 41.1701V40.6457C178.018 40.6047 178.007 40.5645 177.989 40.528C177.97 40.4915 177.943 40.4595 177.911 40.4342C177.879 40.4088 177.841 40.3908 177.801 40.3812C177.761 40.3717 177.72 40.3709 177.68 40.3789L174.28 41.0781C174.141 42.0199 173.716 42.8961 173.062 43.5874C172.407 44.2788 171.556 44.7518 170.623 44.9421C170.31 45.0062 169.991 45.0385 169.671 45.0387ZM168.751 36.2987C167.708 36.5424 166.795 37.1724 166.198 38.0617C165.6 38.9511 165.362 40.0338 165.531 41.0919C165.712 42.0762 166.239 42.9633 167.017 43.5927C167.795 44.2221 168.773 44.5522 169.773 44.5233C170.774 44.4944 171.731 44.1084 172.471 43.4351C173.212 42.7619 173.687 41.8458 173.811 40.8527V40.6871L177.56 39.9281C177.667 39.9021 177.779 39.9003 177.888 39.923C177.996 39.9456 178.098 39.9921 178.186 40.0591C178.274 40.126 178.346 40.2118 178.397 40.3101C178.448 40.4083 178.476 40.5167 178.48 40.6273V41.1517C178.481 41.2141 178.503 41.2743 178.544 41.3221C178.584 41.3698 178.639 41.4023 178.701 41.4139C178.902 41.4427 179.094 41.5169 179.262 41.6309C179.43 41.7448 179.57 41.8956 179.671 42.0717C179.696 42.1213 179.735 42.1622 179.784 42.1885C179.832 42.2149 179.888 42.2255 179.943 42.2189L180.154 42.1729C180.208 42.1591 180.256 42.1284 180.29 42.0853C180.325 42.0422 180.345 41.989 180.347 41.9337C180.376 41.6473 180.496 41.3776 180.688 41.1635C180.88 40.9494 181.136 40.802 181.418 40.7426C181.699 40.6832 181.992 40.7149 182.255 40.8331C182.517 40.9513 182.735 41.1498 182.877 41.4001C182.901 41.4494 182.939 41.49 182.987 41.5164C183.035 41.5428 183.09 41.5536 183.144 41.5473L183.365 41.5013C183.418 41.4866 183.465 41.4556 183.499 41.4125C183.532 41.3695 183.552 41.3168 183.554 41.2621C183.576 41.0601 183.645 40.866 183.754 40.6946C183.864 40.5232 184.01 40.379 184.184 40.2731C184.235 40.2365 184.272 40.1841 184.289 40.1241C184.307 40.0641 184.304 40 184.28 39.9419L184.092 39.4543C184.053 39.3538 184.036 39.2459 184.043 39.1383C184.05 39.0307 184.081 38.926 184.132 38.8314C184.184 38.7367 184.256 38.6545 184.343 38.5905C184.429 38.5265 184.529 38.4822 184.635 38.4607L184.915 38.4009C185.067 38.3685 185.211 38.3058 185.338 38.2166C185.465 38.1274 185.573 38.0134 185.655 37.8816C185.737 37.7498 185.791 37.6027 185.815 37.4493C185.839 37.2959 185.832 37.1392 185.794 36.9887C185.704 36.6992 185.508 36.4544 185.245 36.3034C184.983 36.1523 184.672 36.1063 184.377 36.1745L173.42 38.4515L173.337 38.3089C172.897 37.5252 172.213 36.906 171.39 36.545C170.567 36.184 169.649 36.1008 168.774 36.3079L168.751 36.2987ZM169.671 43.3275C169.1 43.3338 168.539 43.174 168.056 42.8675C167.486 42.493 167.063 41.9323 166.86 41.2809C166.657 40.6295 166.685 39.9278 166.942 39.2953C167.198 38.6629 167.666 38.1389 168.265 37.8127C168.864 37.4865 169.558 37.3783 170.228 37.5065C170.899 37.6347 171.504 37.9914 171.94 38.5157C172.377 39.0401 172.618 39.6997 172.623 40.382C172.628 41.0643 172.396 41.7272 171.966 42.2576C171.537 42.788 170.937 43.1531 170.269 43.2907C170.073 43.3261 169.874 43.3415 169.675 43.3367L169.671 43.3275ZM169.671 37.8949C169.5 37.8959 169.329 37.9128 169.16 37.9455C168.84 38.0137 168.536 38.1445 168.266 38.3302C167.996 38.5159 167.765 38.7529 167.587 39.0278C167.409 39.3027 167.286 39.61 167.227 39.9322C167.167 40.2543 167.172 40.5851 167.24 40.9056C167.308 41.2261 167.439 41.5299 167.624 41.7999C167.81 42.0698 168.047 42.3006 168.322 42.4789C168.597 42.6572 168.904 42.7797 169.226 42.8392C169.549 42.8988 169.879 42.8943 170.2 42.8261C170.681 42.7259 171.122 42.4856 171.466 42.1354C171.811 41.7852 172.044 41.3407 172.137 40.8581C172.229 40.3755 172.177 39.8763 171.986 39.4235C171.795 38.9706 171.475 38.5844 171.065 38.3135C170.657 38.0426 170.178 37.9 169.689 37.9041L169.671 37.8949Z" fill="white"/>
<path opacity="0.6" d="M162.15 56.4972C165.163 56.4972 167.606 54.9402 167.606 53.0196C167.606 51.099 165.163 49.542 162.15 49.542C159.137 49.542 156.694 51.099 156.694 53.0196C156.694 54.9402 159.137 56.4972 162.15 56.4972Z" fill="#0992BF"/>
<path opacity="0.3" d="M153.47 57.9233C154.707 57.9233 155.71 57.2848 155.71 56.4973C155.71 55.7097 154.707 55.0713 153.47 55.0713C152.232 55.0713 151.229 55.7097 151.229 56.4973C151.229 57.2848 152.232 57.9233 153.47 57.9233Z" fill="#0992BF"/>
</svg>
